# xmcd
#
# Track frame offsets: 
#        150
#        15629
#        34422
#
# Disc length: 652 seconds
#
# Revision: 0
# Processed by: cddbd v1.5.1PL0 Copyright (c) Steve Scherf et al.
# Submitted via: ExactAudioCopy v0.95a4
#
DISCID=1d028a03
DTITLE=Michael Farago - Lenin
DYEAR=2004
DGENRE=Blues
TTITLE0=Lenin
TTITLE1=Debris
TTITLE2=Three Flights Daily
EXTD=
EXTT0=
EXTT1=
EXTT2=
PLAYORDER=
